<svg xmlns="http://www.w3.org/2000/svg" viewBox="0 0 128 128">
    <defs>
        <linearGradient id="catGradient" x1="0%" y1="0%" x2="100%" y2="100%">
            <stop offset="0%" style="stop-color:#007AFF"/>
            <stop offset="100%" style="stop-color:#0066FF"/>
        </linearGradient>
    </defs>
    
    <!-- 猫咪头部 -->
    <circle cx="64" cy="64" r="60" fill="url(#catGradient)"/>
    
    <!-- 耳朵 -->
    <path d="M30 40 L45 55 L35 25 Z" fill="#007AFF"/>
    <path d="M98 40 L83 55 L93 25 Z" fill="#007AFF"/>
    
    <!-- 眼睛 -->
    <ellipse cx="45" cy="65" rx="8" ry="10" fill="white"/>
    <ellipse cx="83" cy="65" rx="8" ry="10" fill="white"/>
    <ellipse cx="45" cy="65" rx="4" ry="6" fill="black"/>
    <ellipse cx="83" cy="65" rx="4" ry="6" fill="black"/>
    
    <!-- 鼻子 -->
    <path d="M64 75 L60 80 L68 80 Z" fill="#007AFF"/>
    
    <!-- 嘴巴 -->
    <path d="M64 80 Q64 85 60 85 M64 80 Q64 85 68 85" 
          fill="none" stroke="#007AFF" stroke-width="2"/>
    
    <!-- 胡须 -->
    <g stroke="#007AFF" stroke-width="1.5">
        <line x1="35" y1="75" x2="20" y2="70"/>
        <line x1="35" y1="80" x2="20" y2="80"/>
        <line x1="35" y1="85" x2="20" y2="90"/>
        <line x1="93" y1="75" x2="108" y2="70"/>
        <line x1="93" y1="80" x2="108" y2="80"/>
        <line x1="93" y1="85" x2="108" y2="90"/>
    </g>

    <!-- 签名小圆点 -->
    <circle cx="64" cy="95" r="2" fill="white"/>
</svg> 